<?xml version="1.0" encoding="UTF-8"?>
<svg id="Layer_1" data-name="Layer 1" xmlns="http://www.w3.org/2000/svg" version="1.1" viewBox="0 0 100 70">
  <defs>
    <style>
      .cls-1 {
        fill: #e2f3a9;
        stroke-width: 0px;
      }
    </style>
  </defs>
  <path class="cls-1" d="M53.77,22.27c-5.67,0-10.27,4.6-10.27,10.27s4.6,10.27,10.27,10.27,10.27-4.6,10.27-10.27h0c0-5.67-4.6-10.27-10.27-10.27Z"/>
  <path class="cls-1" d="M64.87,5.9h-30.06c-16.32,0-29.56,13.23-29.56,29.56s13.23,29.56,29.56,29.56h30.06c16.32,0,29.56-13.24,29.56-29.56s-13.23-29.56-29.56-29.56ZM53.77,45.82c-3.12,0-5.99-1.09-8.26-2.89l-10.3,10.3c-.59.59-1.54.59-2.13,0-.59-.59-.59-1.54,0-2.13l10.3-10.3c-1.8-2.27-2.89-5.13-2.89-8.26,0-7.33,5.94-13.28,13.28-13.28s13.28,5.94,13.28,13.28-5.94,13.28-13.28,13.28Z"/>
</svg>