<?xml version="1.0" encoding="UTF-8"?>
<svg id="Layer_1" data-name="Layer 1" xmlns="http://www.w3.org/2000/svg" version="1.1" viewBox="0 0 100 70">
  <defs>
    <style>
      .cls-1 {
        fill: #e2f3a9;
        stroke-width: 0px;
      }
    </style>
  </defs>
  <path class="cls-1" d="M19.57,12.02h60.86c1.11,0,2.01-.88,2.01-1.97s-.9-1.97-2.01-1.97H19.57c-1.11,0-2.01.88-2.01,1.97s.9,1.97,2.01,1.97Z"/>
  <path class="cls-1" d="M80.43,33.03H19.57c-1.11,0-2.01.88-2.01,1.97s.9,1.97,2.01,1.97h60.86c1.11,0,2.01-.88,2.01-1.97s-.9-1.97-2.01-1.97Z"/>
  <path class="cls-1" d="M80.43,57.97H19.57c-1.11,0-2.01.88-2.01,1.97s.9,1.97,2.01,1.97h60.86c1.11,0,2.01-.88,2.01-1.97s-.9-1.97-2.01-1.97Z"/>
</svg>