<?xml version="1.0" encoding="UTF-8"?>
<svg id="Layer_1" data-name="Layer 1" xmlns="http://www.w3.org/2000/svg" version="1.1" viewBox="0 0 60 60">
  <defs>
    <style>
      .cls-1 {
        fill: #fff;
        stroke-width: 0px;
      }
    </style>
  </defs>
  <path class="cls-1" d="M30,6.85c-12.79,0-23.15,10.36-23.15,23.15s10.36,23.15,23.15,23.15,23.15-10.36,23.15-23.15S42.78,6.85,30,6.85ZM19.32,46.3l3.53-12.34h14.3l3.53,12.34c-3.07,2.01-6.73,3.19-10.67,3.19s-7.61-1.18-10.68-3.19ZM27.01,30.3l2.99-11.96,2.99,11.96h-5.98ZM39.91,30.3h-3.15l-3.21-12.84c-.92-3.69-6.17-3.69-7.09,0l-3.21,12.84h-3.15l-3.86,13.5c-3.54-3.53-5.73-8.41-5.73-13.8,0-10.77,8.73-19.49,19.49-19.49s19.49,8.73,19.49,19.49c0,5.39-2.19,10.27-5.73,13.8l-3.86-13.5Z"/>
</svg>