<?xml version="1.0" encoding="UTF-8"?>
<svg id="Layer_1" data-name="Layer 1" xmlns="http://www.w3.org/2000/svg" version="1.1" viewBox="0 0 60 60">
  <defs>
    <style>
      .cls-1 {
        fill: #ff3947;
        stroke-width: 0px;
      }
    </style>
  </defs>
  <path class="cls-1" d="M55.74,15.48s0-.02-.01-.03c-.11-.28-.28-.53-.49-.74l-9.04-9.04c-.88-.88-2.31-.88-3.2,0-.88.88-.88,2.31,0,3.2l5.18,5.18h-21.68c-1.25,0-2.26,1.01-2.26,2.26s1.01,2.26,2.26,2.26h21.67l-5.18,5.18c-.88.88-.88,2.31,0,3.2.88.88,2.31.88,3.2,0l9.04-9.04c.21-.21.38-.46.49-.74,0-.01,0-.02.01-.03.1-.26.16-.53.16-.82h0c0-.29-.06-.57-.16-.83Z"/>
  <path class="cls-1" d="M33.49,41.43H11.82l5.18-5.18c.88-.88.88-2.31,0-3.2-.88-.88-2.31-.88-3.2,0l-9.04,9.04c-.21.21-.38.46-.49.74,0,.01,0,.02-.01.03-.1.26-.16.53-.16.83s.06.57.16.83c0,.01,0,.02.01.03.11.28.28.53.49.74l9.04,9.04c.88.88,2.31.88,3.2,0,.88-.88.88-2.31,0-3.2l-5.18-5.18h21.67c1.25,0,2.26-1.01,2.26-2.26s-1.01-2.26-2.26-2.26Z"/>
  <path class="cls-1" d="M30,24.03c-3.29,0-5.97,2.68-5.97,5.97s2.68,5.97,5.97,5.97,5.97-2.68,5.97-5.97-2.68-5.97-5.97-5.97ZM30,31.44c-.8,0-1.44-.65-1.44-1.44s.65-1.44,1.44-1.44,1.44.65,1.44,1.44-.65,1.44-1.44,1.44Z"/>
</svg>