<?xml version="1.0" encoding="UTF-8"?>
<svg id="Layer_1" data-name="Layer 1" xmlns="http://www.w3.org/2000/svg" version="1.1" viewBox="0 0 60 60">
  <defs>
    <style>
      .cls-1 {
        fill: #fff;
        stroke-width: 0px;
      }
    </style>
  </defs>
  <path class="cls-1" d="M38.79,21.21c-.67-.67-1.76-.67-2.43,0l-6.36,6.37-6.37-6.37c-.67-.67-1.76-.67-2.43,0s-.67,1.76,0,2.43l6.37,6.37-6.37,6.37c-.67.67-.67,1.76,0,2.42.67.67,1.76.67,2.43,0l6.37-6.37,6.36,6.37c.67.67,1.76.67,2.43,0,.67-.67.67-1.75,0-2.42l-6.37-6.37,6.37-6.37c.67-.67.67-1.76,0-2.43Z"/>
  <path class="cls-1" d="M46.37,13.63c-9.04-9.04-23.7-9.04-32.74,0-9.04,9.04-9.04,23.7,0,32.74,9.04,9.04,23.7,9.04,32.74,0,9.04-9.04,9.04-23.7,0-32.74ZM43.94,43.94c-7.7,7.7-20.19,7.7-27.89,0-7.7-7.7-7.7-20.19,0-27.89,7.7-7.7,20.19-7.7,27.89,0,7.7,7.7,7.7,20.19,0,27.89Z"/>
</svg>