<?xml version="1.0" encoding="UTF-8"?>
<svg id="Layer_1" data-name="Layer 1" xmlns="http://www.w3.org/2000/svg" version="1.1" viewBox="0 0 60 60">
  <defs>
    <style>
      .cls-1 {
        fill: #ff3947;
        stroke-width: 0px;
      }
    </style>
  </defs>
  <path class="cls-1" d="M25.03,37.84l-14.84,14.84-2.88-2.88,14.84-14.84,2.88,2.88ZM10.2,52.68c-.79.79-2.08.79-2.88,0-.79-.79-.79-2.08,0-2.88l2.88,2.88ZM22.16,34.97c.79-.79,2.08-.79,2.88,0,.79.79.79,2.08,0,2.88l-2.88-2.88Z"/>
  <path class="cls-1" d="M53.28,24.69c0,9.92-8.04,17.97-17.97,17.97v-4.07c7.68,0,13.9-6.22,13.9-13.9h4.07ZM35.31,6.72c9.92,0,17.97,8.04,17.97,17.97h-4.07c0-7.68-6.22-13.9-13.9-13.9v-4.07ZM17.34,24.69c0-9.92,8.04-17.97,17.97-17.97v4.07c-7.68,0-13.9,6.22-13.9,13.9h-4.07ZM35.31,42.66c-9.92,0-17.97-8.04-17.97-17.97h4.07c0,7.68,6.22,13.9,13.9,13.9v4.07Z"/>
</svg>