<?xml version="1.0" encoding="UTF-8"?>
<svg id="Layer_1" data-name="Layer 1" xmlns="http://www.w3.org/2000/svg" version="1.1" viewBox="0 0 60 60">
  <defs>
    <style>
      .cls-1 {
        fill: #fff;
        stroke-width: 0px;
      }
    </style>
  </defs>
  <path class="cls-1" d="M48.86,24.5h-13.88l4.19-12.58c.52-1.56-.19-3.27-1.66-4l-.22-.11c-1.36-.68-3-.35-3.99.81l-12.82,14.96c-.51.6-.8,1.36-.8,2.15v23.51c0,1.83,1.48,3.31,3.31,3.31h21.98c1.6,0,2.97-1.14,3.25-2.72l3.9-21.43c.37-2.03-1.19-3.9-3.25-3.9Z"/>
  <path class="cls-1" d="M9.48,25.39c-.91,0-1.65.74-1.65,1.65v22.94c0,.91.74,1.65,1.65,1.65s1.65-.74,1.65-1.65v-22.94c0-.91-.74-1.65-1.65-1.65Z"/>
</svg>