<?xml version="1.0" encoding="UTF-8"?>
<svg id="Layer_1" data-name="Layer 1" xmlns="http://www.w3.org/2000/svg" version="1.1" viewBox="0 0 100 70">
  <defs>
    <style>
      .cls-1 {
        fill: #e2f3a9;
        stroke-width: 0px;
      }
    </style>
  </defs>
  <path class="cls-1" d="M50,7.33c-15.26,0-27.67,12.41-27.67,27.67s12.41,27.67,27.67,27.67,27.67-12.41,27.67-27.67-12.41-27.67-27.67-27.67ZM34.68,50.83c.67-.74,1.66-1.42,3.22-2.2.7-.35,1.44-.69,2.27-1.06.77-.35,1.57-.71,2.35-1.1,1.38-.69,3.16-1.68,4.65-3.16.57-.57.89-1.17.98-1.83.08-.65-.08-1.3-.48-1.93-.27-.42-.64-.81-.9-1.1l-.16-.18c-.25-.27-.51-.55-.79-.88-1.21-1.45-2.82-4.01-2.82-9.44,0-3.48.66-6.07,1.96-7.7,1.22-1.53,3.07-2.27,5.66-2.27s4.44.74,5.66,2.27c1.3,1.63,1.96,4.22,1.96,7.7,0,5.42-1.61,7.98-2.82,9.44-.28.34-.55.63-.81.91l-.14.15c-.27.29-.64.68-.9,1.1-.4.63-.57,1.28-.48,1.93.08.66.4,1.25.98,1.83,1.48,1.48,3.26,2.46,4.65,3.16.79.39,1.59.76,2.4,1.13.78.35,1.52.69,2.22,1.04,1.56.78,2.55,1.46,3.22,2.2.29.33.52.66.69,1.03-4.58,4.69-10.69,7.26-17.23,7.26-6.05,0-11.84-2.26-16.3-6.37.15-.73.47-1.35.98-1.92ZM56.86,41.08c.06-.06.12-.14.2-.22l.12-.13c.27-.29.61-.65.96-1.07,1.56-1.88,3.64-5.13,3.64-11.71,0-4.31-.92-7.65-2.74-9.92-1.91-2.39-4.75-3.6-8.43-3.6s-6.52,1.21-8.43,3.6c-1.82,2.27-2.74,5.61-2.74,9.92,0,6.57,2.08,9.83,3.64,11.71.35.42.68.78.96,1.07l.12.13c.07.08.14.15.2.22-.84.76-1.91,1.45-3.42,2.21-.74.37-1.5.72-2.28,1.07l-.09.04c-.75.34-1.52.69-2.26,1.06-1.33.67-3.02,1.61-4.27,3.01-.38.43-.72.9-1,1.42-3.32-4.23-5.15-9.49-5.15-14.88,0-13.3,10.82-24.12,24.12-24.12s24.12,10.82,24.12,24.12c0,5.07-1.55,9.9-4.5,14.01-.15-.2-.29-.38-.44-.55-1.26-1.4-2.94-2.34-4.27-3.01-.74-.37-1.51-.72-2.26-1.06l-.09-.04c-.78-.35-1.54-.7-2.28-1.07-1.51-.76-2.58-1.45-3.42-2.21Z"/>
</svg>