<?xml version="1.0" encoding="UTF-8"?>
<svg id="Layer_1" data-name="Layer 1" xmlns="http://www.w3.org/2000/svg" version="1.1" viewBox="0 0 520 85">
  <defs>
    <style>
      .cls-1 {
        fill: #e2f3a9;
        stroke-width: 0px;
      }
    </style>
  </defs>
  <path class="cls-1" d="M38.06,51.16h-7.38c-1.07,0-1.28.75-1.28,1.5v7.59c0,7.38.54,9.62,1.07,11.12.64,1.82,1.82,3.42,3.96,4.6,1.39.75,2.56,1.5,2.56,3.1,0,1.82-1.71,2.78-4.06,2.78H8.13c-2.24,0-4.06-.96-4.06-2.78,0-1.6,1.18-2.24,2.67-3.1,2.03-1.18,3.21-2.78,3.85-4.6.54-1.5,1.07-3.74,1.07-11.12V19.41c0-3.74-.21-6.2-2.99-7.8-1.92-1.18-3.85-1.5-3.85-3.63,0-1.28,1.07-2.46,3.53-2.46h23.52c13.9,0,24.37.11,31.53,6.95,4.38,4.17,5.99,9.83,5.99,15.29,0,2.99-.64,6.2-1.71,8.76-4.06,9.83-13.89,14.64-29.61,14.64ZM51.1,28.18c0-3.21-.96-6.52-3.31-9.09-3.21-3.42-7.38-4.81-13.47-4.81h-3.31c-1.18,0-1.6.53-1.6,1.6v25.01c0,.86.43,1.28,1.28,1.28h3.63c7.48,0,11.97-2.14,14.54-6.09,1.28-1.92,2.24-4.92,2.24-7.91Z"/>
  <path class="cls-1" d="M102.19,79.05c0,1.82-1.82,2.78-4.17,2.78h-22.98c-2.35,0-4.17-.96-4.17-2.78,0-1.6,1.18-2.24,2.67-3.1,2.03-1.18,3.31-2.78,3.95-4.6.54-1.5,1.07-3.74,1.07-11.22V23.37c0-3.1-.11-5.34-.75-7.05-.64-1.71-1.82-2.67-3.96-3.53-1.18-.53-3.31-1.07-3.31-2.99,0-1.5,1.07-2.25,3.53-2.89,4.92-1.18,11.01-2.89,14.86-4.28.64-.21,1.71-.64,2.78-.64,1.39,0,2.78.75,2.78,3.63v54.51c0,7.38.54,9.73,1.07,11.22.64,1.82,1.92,3.42,3.96,4.6,1.39.86,2.67,1.39,2.67,3.1Z"/>
  <path class="cls-1" d="M161.72,75.74c0,1.6-1.18,3.1-2.57,4.28-2.35,1.92-5.99,2.99-9.19,2.99-4.6,0-9.19-2.35-10.58-8.02-.11-.43-.11-.64-.32-.64-.11,0-.21.11-.54.54-4.28,5.56-11.01,8.12-17.42,8.12-8.44,0-16.89-4.6-16.89-14.22,0-4.92,2.46-9.94,7.7-13.04,5.24-3.1,12.61-5.02,17.64-7.27,3.42-1.6,8.02-4.28,8.02-9.09,0-3.74-2.57-6.31-6.95-6.31-2.46,0-4.7.75-6.52,2.03-5.88,3.96-6.31,10.05-10.9,10.05-3.53,0-4.7-1.71-4.7-6.73,0-2.89.53-6.2,2.03-8.02,3.53-4.49,14.96-5.56,20.42-5.56,11.01,0,23.84,5.02,23.84,18.06,0,7.16-.53,13.57-.53,20.52s0,9.73,4.81,9.94c1.6.11,2.67.75,2.67,2.35ZM137.56,54.15c0-.43-.11-.64-.32-.64s-.32.11-.64.32c-2.78,1.71-7.38,2.99-11.12,5.88-3.1,2.25-4.17,4.81-4.17,7.05,0,3.74,2.67,6.31,6.63,6.31,3.21,0,6.52-1.92,8.23-5.34,1.39-2.89,1.39-6.09,1.39-12.51v-1.07Z"/>
  <path class="cls-1" d="M233.01,79.05c0,1.82-1.82,2.78-4.17,2.78h-23.09c-2.35,0-4.17-.96-4.17-2.78,0-1.6,1.28-2.35,2.67-3.21,2.14-1.28,3.31-2.78,3.96-4.49.53-1.5,1.07-3.85,1.07-11.33v-13.15c0-5.67-2.67-9.94-8.66-9.94-2.25,0-4.92.75-7.05,2.89-3.63,3.53-4.81,9.3-4.81,20.2,0,7.48.53,9.83,1.07,11.33.53,1.71,1.82,3.31,3.96,4.49,1.39.85,2.67,1.6,2.67,3.21,0,1.82-1.82,2.78-4.17,2.78h-22.87c-2.35,0-4.06-.96-4.06-2.78,0-1.6,1.18-2.35,2.57-3.21,2.14-1.18,3.42-2.78,3.96-4.49.53-1.5,1.07-3.85,1.07-11.33v-13.68c0-3.1-.11-5.34-.75-7.05-.64-1.71-1.71-2.67-3.74-3.53-1.18-.54-3.42-1.18-3.42-2.99,0-1.5,1.18-2.46,3.63-2.99,4.92-1.18,10.15-2.78,14.22-4.28,1.18-.43,2.03-.64,3.1-.64,1.39,0,2.78.75,2.78,3.63v5.13c0,.53.21.75.43.75s.43-.21.64-.53c4.38-6.2,10.69-8.98,17.32-8.98,5.67,0,11.54,2.46,14.96,7.8,2.46,3.63,3.21,8.44,3.21,14.22v13.15c0,7.48.64,9.83,1.07,11.33.53,1.71,1.92,3.31,3.96,4.49,1.5.85,2.67,1.6,2.67,3.21Z"/>
  <path class="cls-1" d="M278.01,71.36c0,1.07-.54,2.46-1.39,3.63-3.31,4.92-9.62,8.02-16.14,8.02-7.91,0-13.04-3.74-15.5-8.34-1.82-3.42-2.46-7.7-2.46-13.47,0-7.05.86-14.22,1.07-23.94,0-.86-.32-1.18-1.18-1.18h-6.52c-.96,0-1.6-.64-1.6-1.71v-4.6c0-.96.54-1.6,1.82-1.82,5.45-.86,8.44-2.89,10.15-5.34,1.82-2.57,2.14-5.56,2.57-7.7.21-1.18.75-1.71,1.82-1.71h6.95c.96,0,1.6.64,1.6,1.6v10.05c0,2.89.21,3.21,2.78,3.21,1.82,0,3.1-.11,4.92-.32,1.92-.21,4.06-.54,6.09-.54,1.28,0,3.74.11,3.74,2.14,0,.85-.43,2.14-.64,3.21-.64,2.78-1.5,3.96-4.92,3.96-1.6,0-3.53-.21-5.45-.32-1.71-.11-3.96-.11-5.56-.11-.75,0-1.18.43-1.18,1.18-.11,2.57-.11,5.67-.11,8.87,0,7.91.32,16.46,1.6,20.41,1.5,4.6,4.81,5.88,7.16,5.88,4.28,0,5.99-3.31,8.23-3.31,1.18,0,2.14.96,2.14,2.25Z"/>
  <path class="cls-1" d="M348.23,79.05c0,1.82-1.82,2.78-4.17,2.78h-23.09c-2.35,0-4.17-.96-4.17-2.78,0-1.6,1.28-2.35,2.67-3.21,2.14-1.28,3.31-2.78,3.95-4.49.54-1.5,1.07-3.85,1.07-11.33v-13.15c0-5.67-2.67-9.94-8.66-9.94-2.24,0-4.92.75-7.05,2.89-3.63,3.53-4.81,9.3-4.81,20.2,0,7.48.53,9.83,1.07,11.33.54,1.71,1.82,3.31,3.96,4.49,1.39.85,2.67,1.6,2.67,3.21,0,1.82-1.82,2.78-4.17,2.78h-22.87c-2.35,0-4.06-.96-4.06-2.78,0-1.6,1.18-2.35,2.57-3.21,2.14-1.18,3.42-2.78,3.95-4.49.54-1.5,1.07-3.85,1.07-11.33V23.47c0-3.1-.11-5.34-.75-7.05-.64-1.71-1.82-2.67-3.85-3.63-1.18-.53-3.42-.96-3.42-2.78,0-1.5,1.18-2.46,3.63-2.99,4.92-1.18,10.8-2.89,14.64-4.38.64-.21,1.71-.64,2.78-.64,1.39,0,2.78.75,2.78,3.63v28c0,.53.21.75.43.75s.43-.21.64-.53c4.38-6.2,10.69-8.98,17.32-8.98,5.67,0,11.54,2.46,14.96,7.8,2.46,3.63,3.21,8.44,3.21,14.22v13.15c0,7.48.64,9.83,1.07,11.33.54,1.71,1.92,3.31,3.96,4.49,1.5.85,2.67,1.6,2.67,3.21Z"/>
  <path class="cls-1" d="M409.69,53.62c0,16.03-12.72,29.39-29.39,29.39s-29.18-11.22-29.18-28.75c0-16.03,12.83-29.39,30.04-29.39s28.54,12.08,28.54,28.75ZM379.44,32.77c-7.27,0-11.33,6.2-11.33,17,0,7.48,2.57,25.01,13.25,25.01,7.48,0,11.22-8.02,11.22-18.17,0-7.7-2.25-23.84-13.15-23.84Z"/>
  <path class="cls-1" d="M461.64,35.12c0,3.31-1.71,6.52-5.24,6.52-3.31,0-5.13-2.89-8.87-2.89-8.76,0-9.62,14.22-9.62,21.38s.53,9.73,1.07,11.22c.53,1.82,1.82,3.42,3.96,4.6,1.39.75,2.57,1.5,2.57,3.1,0,1.82-1.71,2.78-4.06,2.78h-22.98c-2.35,0-4.17-.86-4.17-2.78,0-1.6,1.18-2.24,2.67-3.1,2.03-1.18,3.31-2.78,3.95-4.6.54-1.5.96-3.74.96-11.22v-14c0-2.99-.11-5.24-.64-6.95s-1.6-2.78-3.96-3.63c-1.18-.43-3.31-.86-3.31-2.99,0-1.39,1.07-2.24,3.53-2.78,4.81-1.07,8.98-2.35,13.15-4.06,1.5-.64,2.46-.86,3.31-.86,1.6,0,2.89.96,2.89,3.53v8.12c0,.32.11.43.21.43s.21,0,.43-.43c2.57-5.13,8.12-11.65,14.96-11.65,6.2,0,9.19,4.81,9.19,10.26Z"/>
  <path class="cls-1" d="M515.93,75.74c0,1.6-1.18,3.1-2.57,4.28-2.35,1.92-5.99,2.99-9.19,2.99-4.6,0-9.19-2.35-10.58-8.02-.11-.43-.11-.64-.32-.64-.11,0-.21.11-.54.54-4.28,5.56-11.01,8.12-17.42,8.12-8.44,0-16.89-4.6-16.89-14.22,0-4.92,2.46-9.94,7.7-13.04,5.24-3.1,12.61-5.02,17.64-7.27,3.42-1.6,8.02-4.28,8.02-9.09,0-3.74-2.57-6.31-6.95-6.31-2.46,0-4.7.75-6.52,2.03-5.88,3.96-6.31,10.05-10.9,10.05-3.53,0-4.7-1.71-4.7-6.73,0-2.89.53-6.2,2.03-8.02,3.53-4.49,14.96-5.56,20.42-5.56,11.01,0,23.84,5.02,23.84,18.06,0,7.16-.53,13.57-.53,20.52s0,9.73,4.81,9.94c1.6.11,2.67.75,2.67,2.35ZM491.78,54.15c0-.43-.11-.64-.32-.64s-.32.11-.64.32c-2.78,1.71-7.38,2.99-11.12,5.88-3.1,2.25-4.17,4.81-4.17,7.05,0,3.74,2.67,6.31,6.63,6.31,3.21,0,6.52-1.92,8.23-5.34,1.39-2.89,1.39-6.09,1.39-12.51v-1.07Z"/>
</svg>